<svg aria-hidden="true" style="position: absolute; width: 0; height: 0; overflow: hidden;" version="1.1" xmlns="http://www.w3.org/2000/svg" xmlns:xlink="http://www.w3.org/1999/xlink">
<defs>
<symbol id="icon-mongodb" viewBox="0 0 32 32">
<path fill="#47a248" style="fill: var(--color1, #47a248)" d="M22.907 12.691c-1.684-7.413-5.656-9.849-6.083-10.781-0.469-0.657-0.977-1.909-0.977-1.909-0.003 0.025-0.005 0.041-0.007 0.065v0.017h-0.001c-0.003 0.020-0.004 0.033-0.005 0.052v0.020h-0.003c0 0.013-0.003 0.024-0.003 0.035v0.035h-0.004c-0.001 0.011-0.001 0.024-0.004 0.033v0.028h-0.003c0 0.009 0 0.020-0.003 0.028v0.027h-0.003c0 0.013-0.001 0.029-0.003 0.043v0.003c-0.004 0.023-0.008 0.045-0.012 0.067v0.011h-0.003c-0.001 0.005-0.004 0.011-0.004 0.016v0.023h-0.004v0.029h-0.007v0.024h-0.007v0.028h-0.005v0.025h-0.005v0.023h-0.008v0.019h-0.005v0.024h-0.005v0.019h-0.007v0.017h-0.004v0.020h-0.005c-0.001 0.001-0.001 0.004-0.001 0.005v0.013h-0.004c-0.001 0.003-0.001 0.005-0.001 0.008v0.008h-0.003c-0.001 0.004-0.003 0.011-0.003 0.013-0.004 0.009-0.009 0.019-0.013 0.028v0.003c-0.003 0.003-0.005 0.007-0.007 0.009v0.011h-0.005v0.011h-0.007v0.011h-0.004v0.013h-0.008v0.019h-0.005v0.005h-0.005v0.011h-0.005v0.015h-0.005v0.011h-0.008v0.015h-0.005v0.011h-0.007v0.011h-0.004v0.013h-0.007v0.011h-0.005v0.008h-0.005v0.011h-0.008v0.012h-0.005v0.008h-0.007v0.011h-0.005v0.015h-0.007v0.005h-0.004v0.011h-0.008v0.005h-0.005v0.013h-0.005v0.005h-0.005v0.011h-0.007v0.008h-0.004l-0.003 0.005v0.005h-0.003c-0.001 0.003-0.003 0.003-0.003 0.005v0.001h-0.001c-0.001 0.004-0.003 0.007-0.005 0.009v0.004h-0.001c-0.007 0.008-0.011 0.016-0.016 0.024v0.001c-0.003 0.003-0.009 0.008-0.012 0.013v0.003h-0.001c-0.001 0.001-0.004 0.003-0.004 0.004v0.004h-0.003l-0.004 0.004v0.001h-0.001c0 0.001-0.003 0.003-0.004 0.005v0.005h-0.004l-0.003 0.003v0.003h-0.003c0 0.003-0.003 0.003-0.003 0.004v0.004h-0.005c0 0.001-0.001 0.003-0.003 0.004v0.008h-0.004v0.005h-0.005v0.008h-0.005v0.011h-0.007v-0.011h-0.007v0.005h-0.005v0.008h-0.007v0.011h-0.007v0.005h-0.005v0.008h-0.005v0.005h-0.005v0.011h-0.008v0.005h-0.005v0.008h-0.007v0.005h-0.005v0.007h-0.007v0.013h-0.003v0.005h-0.008v0.007h-0.005v0.003h-0.005v0.005h-0.007v0.013h-0.005v0.005h-0.007v0.005h-0.005v0.008h-0.007v0.005h-0.007v0.005h-0.005v0.005h-0.005v0.013h-0.005v0.007h-0.008v0.005h-0.005v0.005h-0.007v0.008h-0.005v0.005h-0.007v0.009h-0.005v0.005h-0.008v0.008h-0.003v0.005h-0.005v0.005h-0.007v0.005h-0.005v0.008h-0.007v0.005h-0.004c-0.001 0.001-0.001 0.003-0.001 0.003v0.003h-0.003l-0.005 0.005c0 0-0.003 0.003-0.005 0.004v0.008h-0.005v0.007h-0.005v0.005h-0.005v0.005h-0.004l-0.004 0.004v0.004h-0.003l-0.003 0.003v0.004h-0.003c-0.007 0.008-0.009 0.013-0.019 0.021-0.003 0.003-0.011 0.009-0.016 0.013-0.016 0.011-0.036 0.028-0.052 0.043-0.011 0.007-0.021 0.016-0.029 0.023v0.001h-0.001c-0.021 0.017-0.041 0.033-0.065 0.052v0.001c-0.032 0.027-0.063 0.052-0.099 0.083v-0.001h-0.003c-0.076 0.063-0.156 0.133-0.248 0.212v0.001h-0.001c-0.225 0.197-0.493 0.451-0.793 0.757l-0.025 0.025c-1.813 1.876-4.671 5.785-4.972 12.103-0.027 0.523-0.021 1.031 0.008 1.525v0.012c0.145 2.489 0.927 4.615 1.904 6.341v0.001c0.389 0.688 0.809 1.313 1.235 1.873v0.001c1.469 1.94 2.969 3.089 3.352 3.368 0.588 1.364 0.533 3.705 0.533 3.705l0.859 0.287c0 0-0.175-2.268 0.071-3.363 0.076-0.343 0.256-0.635 0.465-0.883 0.141-0.1 0.56-0.401 1.063-0.86 0.024-0.025 0.037-0.048 0.059-0.072 2.028-1.891 5.816-6.547 4.517-14.132z"></path>
</symbol>
<symbol id="icon-mysql" viewBox="0 0 32 32">
<path fill="#4479a1" style="fill: var(--color2, #4479a1)" d="M21.873 7.568c-0.153 0-0.257 0.019-0.365 0.044v0.017h0.019c0.072 0.139 0.195 0.24 0.285 0.364 0.072 0.143 0.133 0.285 0.205 0.427l0.019-0.020c0.125-0.088 0.187-0.229 0.187-0.444-0.053-0.063-0.061-0.125-0.107-0.187-0.053-0.089-0.168-0.133-0.243-0.201zM7.693 25.16h-1.236c-0.040-2.083-0.164-4.040-0.36-5.88h-0.011l-1.88 5.88h-0.94l-1.867-5.88h-0.013c-0.137 1.764-0.224 3.724-0.26 5.88h-1.127c0.073-2.621 0.256-5.080 0.547-7.373h1.533l1.78 5.419h0.011l1.796-5.419h1.46c0.323 2.687 0.512 5.147 0.567 7.373zM13.049 19.72c-0.504 2.727-1.168 4.711-1.989 5.947-0.643 0.955-1.347 1.431-2.111 1.431-0.204 0-0.453-0.061-0.755-0.184v-0.659c0.147 0.023 0.32 0.035 0.515 0.035 0.357 0 0.644-0.1 0.863-0.296 0.263-0.24 0.393-0.509 0.393-0.807 0-0.207-0.103-0.627-0.307-1.259l-1.352-4.208h1.213l0.969 3.147c0.219 0.715 0.311 1.213 0.273 1.497 0.533-1.419 0.904-2.969 1.113-4.644zM29.483 25.16h-3.507v-7.373h1.18v6.467h2.327zM25.056 25.34l-1.355-0.667c0.12-0.101 0.236-0.211 0.34-0.333 0.577-0.675 0.864-1.677 0.864-3.004 0-2.44-0.957-3.661-2.873-3.661-0.939 0-1.672 0.309-2.2 0.929-0.573 0.677-0.861 1.675-0.861 2.993 0 1.296 0.253 2.248 0.765 2.853 0.467 0.547 1.169 0.82 2.111 0.82 0.352 0 0.675-0.044 0.967-0.131l1.767 1.029zM20.667 23.684c-0.3-0.48-0.449-1.253-0.449-2.315 0-1.857 0.565-2.787 1.693-2.787 0.591 0 1.027 0.223 1.303 0.667 0.299 0.483 0.448 1.248 0.448 2.297 0 1.872-0.565 2.811-1.693 2.811-0.593 0-1.027-0.223-1.301-0.673zM18.456 23.117c0 0.627-0.229 1.141-0.688 1.541s-1.071 0.6-1.845 0.6c-0.724 0-1.419-0.229-2.097-0.687l0.316-0.635c0.584 0.293 1.111 0.437 1.587 0.437 0.443 0 0.791-0.097 1.044-0.293 0.251-0.196 0.4-0.472 0.4-0.82 0-0.44-0.307-0.813-0.864-1.127-0.517-0.284-1.551-0.876-1.551-0.876-0.563-0.409-0.843-0.848-0.843-1.569 0-0.6 0.209-1.080 0.627-1.447 0.42-0.371 0.96-0.553 1.627-0.553 0.683 0 1.307 0.181 1.867 0.547l-0.284 0.635c-0.48-0.203-0.953-0.307-1.419-0.307-0.377 0-0.669 0.091-0.872 0.275-0.204 0.181-0.331 0.413-0.331 0.699 0 0.437 0.312 0.813 0.888 1.133 0.524 0.287 1.583 0.893 1.583 0.893 0.577 0.407 0.864 0.84 0.856 1.553zM30.965 15.315c-0.713-0.019-1.267 0.053-1.729 0.251-0.133 0.053-0.347 0.053-0.365 0.223 0.073 0.071 0.084 0.187 0.147 0.285 0.107 0.179 0.291 0.417 0.461 0.543 0.187 0.147 0.373 0.288 0.569 0.413 0.347 0.213 0.74 0.34 1.080 0.555 0.193 0.125 0.391 0.284 0.587 0.417 0.097 0.067 0.16 0.187 0.285 0.229v-0.027c-0.061-0.080-0.080-0.196-0.14-0.285-0.089-0.089-0.179-0.169-0.267-0.257-0.259-0.347-0.58-0.649-0.927-0.9-0.285-0.195-0.909-0.467-1.027-0.793l-0.017-0.019c0.195-0.017 0.427-0.088 0.613-0.141 0.303-0.080 0.58-0.063 0.893-0.141 0.141-0.036 0.284-0.080 0.427-0.125v-0.080c-0.16-0.16-0.28-0.377-0.445-0.527-0.453-0.393-0.956-0.776-1.472-1.097-0.28-0.179-0.635-0.293-0.929-0.445-0.107-0.053-0.285-0.080-0.347-0.169-0.16-0.195-0.253-0.453-0.367-0.685-0.256-0.491-0.507-1.033-0.729-1.551-0.16-0.349-0.257-0.697-0.453-1.017-0.92-1.516-1.916-2.435-3.448-3.333-0.329-0.187-0.724-0.267-1.141-0.365-0.223-0.011-0.445-0.027-0.667-0.036-0.147-0.063-0.288-0.232-0.413-0.313-0.507-0.32-1.819-1.013-2.192-0.096-0.24 0.579 0.356 1.149 0.563 1.443 0.153 0.204 0.347 0.437 0.453 0.667 0.063 0.155 0.080 0.313 0.143 0.475 0.141 0.392 0.276 0.829 0.463 1.196 0.097 0.187 0.204 0.383 0.329 0.551 0.072 0.097 0.195 0.143 0.223 0.303-0.125 0.181-0.133 0.445-0.205 0.667-0.32 1.009-0.195 2.257 0.259 3 0.143 0.221 0.483 0.712 0.937 0.524 0.4-0.16 0.312-0.667 0.427-1.113 0.027-0.107 0.009-0.177 0.064-0.249v0.020c0.125 0.251 0.251 0.489 0.365 0.74 0.275 0.437 0.755 0.891 1.156 1.193 0.213 0.16 0.383 0.437 0.649 0.536v-0.027h-0.020c-0.057-0.077-0.133-0.115-0.205-0.177-0.16-0.16-0.34-0.356-0.467-0.533-0.373-0.503-0.703-1.053-0.996-1.624-0.147-0.28-0.269-0.581-0.387-0.857-0.053-0.107-0.053-0.267-0.143-0.32-0.133 0.195-0.329 0.364-0.427 0.604-0.169 0.384-0.187 0.856-0.251 1.347-0.036 0.009-0.019 0-0.036 0.019-0.285-0.069-0.383-0.365-0.489-0.613-0.267-0.633-0.311-1.651-0.080-2.38 0.063-0.187 0.329-0.776 0.223-0.955-0.056-0.169-0.232-0.267-0.329-0.404-0.116-0.165-0.24-0.38-0.32-0.569-0.213-0.499-0.32-1.051-0.552-1.549-0.107-0.231-0.293-0.472-0.445-0.684-0.169-0.24-0.356-0.409-0.491-0.693-0.044-0.097-0.107-0.259-0.036-0.365 0.019-0.072 0.056-0.1 0.125-0.12 0.117-0.096 0.447 0.029 0.563 0.083 0.329 0.133 0.607 0.259 0.883 0.445 0.125 0.088 0.26 0.257 0.42 0.301h0.187c0.285 0.063 0.607 0.019 0.873 0.097 0.473 0.152 0.9 0.373 1.283 0.613 1.168 0.741 2.128 1.793 2.78 3.048 0.107 0.205 0.153 0.393 0.251 0.607 0.187 0.44 0.417 0.884 0.607 1.309 0.187 0.42 0.367 0.848 0.635 1.196 0.133 0.187 0.669 0.284 0.909 0.381 0.177 0.080 0.453 0.153 0.613 0.251 0.307 0.187 0.605 0.4 0.893 0.605 0.147 0.101 0.591 0.324 0.617 0.504z"></path>
</symbol>
<symbol id="icon-node-dot-js" viewBox="0 0 32 32">
<path fill="#393" style="fill: var(--color3, #393)" d="M15.997 32c-0.428 0-0.855-0.112-1.229-0.329l-3.915-2.316c-0.584-0.327-0.299-0.443-0.107-0.511 0.78-0.271 0.937-0.333 1.771-0.805 0.087-0.049 0.201-0.031 0.291 0.023l3.008 1.785c0.109 0.060 0.263 0.060 0.363 0l11.727-6.768c0.109-0.063 0.179-0.188 0.179-0.317v-13.533c0-0.132-0.071-0.256-0.183-0.323l-11.721-6.763c-0.108-0.063-0.252-0.063-0.361 0l-11.719 6.764c-0.113 0.065-0.185 0.193-0.185 0.321v13.533c0 0.129 0.072 0.252 0.185 0.313l3.212 1.856c1.743 0.872 2.811-0.155 2.811-1.187v-13.361c0-0.189 0.152-0.337 0.341-0.337h1.487c0.185 0 0.34 0.149 0.34 0.337v13.361c0 2.327-1.267 3.66-3.472 3.66-0.677 0-1.212 0-2.701-0.735l-3.077-1.769c-0.76-0.439-1.229-1.26-1.229-2.139v-13.533c0-0.879 0.471-1.7 1.229-2.137l11.727-6.776c0.743-0.42 1.728-0.42 2.464 0l11.725 6.776c0.76 0.439 1.232 1.259 1.232 2.137v13.533c0 0.879-0.472 1.697-1.232 2.139l-11.725 6.771c-0.373 0.217-0.799 0.329-1.233 0.329zM25.465 18.657c0-2.533-1.712-3.208-5.316-3.684-3.641-0.481-4.012-0.731-4.012-1.583 0-0.704 0.313-1.644 3.011-1.644 2.409 0 3.297 0.519 3.663 2.143 0.032 0.153 0.172 0.265 0.329 0.265h1.521c0.095 0 0.184-0.041 0.248-0.108 0.064-0.072 0.099-0.164 0.089-0.261-0.236-2.797-2.095-4.101-5.851-4.101-3.344 0-5.339 1.411-5.339 3.777 0 2.567 1.984 3.276 5.193 3.593 3.84 0.376 4.137 0.937 4.137 1.692 0 1.311-1.052 1.869-3.523 1.869-3.103 0-3.785-0.779-4.015-2.323-0.027-0.165-0.168-0.287-0.337-0.287h-1.516c-0.188 0-0.339 0.149-0.339 0.337 0 1.976 1.075 4.331 6.207 4.331 3.717 0.001 5.848-1.461 5.848-4.017z"></path>
</symbol>
<symbol id="icon-javascript" viewBox="0 0 32 32">
<path fill="#f7df1e" style="fill: var(--color4, #f7df1e)" d="M0 0h32v32h-32zM29.379 24.368c-0.233-1.46-1.184-2.687-4.004-3.831-0.981-0.46-2.072-0.78-2.396-1.52-0.121-0.44-0.14-0.68-0.061-0.94 0.2-0.861 1.22-1.12 2.020-0.88 0.52 0.16 1 0.56 1.301 1.2 1.379-0.901 1.379-0.901 2.34-1.5-0.36-0.56-0.539-0.801-0.781-1.040-0.84-0.94-1.959-1.42-3.779-1.379l-0.94 0.119c-0.901 0.22-1.76 0.7-2.28 1.34-1.52 1.721-1.081 4.721 0.759 5.961 1.82 1.36 4.481 1.659 4.821 2.94 0.32 1.56-1.16 2.060-2.621 1.88-1.081-0.24-1.68-0.781-2.34-1.781l-2.44 1.401c0.28 0.64 0.6 0.919 1.080 1.479 2.32 2.341 8.12 2.221 9.161-1.339 0.039-0.12 0.32-0.94 0.099-2.2zM17.401 14.708h-2.997c0 2.584-0.012 5.152-0.012 7.74 0 1.643 0.084 3.151-0.184 3.615-0.44 0.919-1.573 0.801-2.088 0.64-0.528-0.261-0.796-0.621-1.107-1.14-0.084-0.14-0.147-0.261-0.169-0.261l-2.433 1.5c0.407 0.84 1 1.563 1.765 2.023 1.14 0.68 2.672 0.9 4.276 0.54 1.044-0.301 1.944-0.921 2.415-1.881 0.68-1.24 0.536-2.76 0.529-4.461 0.016-2.739 0-5.479 0-8.239z"></path>
</symbol>
<symbol id="icon-csswizardry" viewBox="0 0 32 32">
<path fill="#f43059" style="fill: var(--color5, #f43059)" d="M0.040 21.904v-20.413c0-0.824 0.667-1.491 1.489-1.491h28.871c0.832 0 1.493 0.667 1.493 1.493v19.68c-0.893-0.547-1.947-0.821-3.143-0.821-1.672 0-2.94 0.4-3.805 1.195-0.867 0.797-1.293 1.771-1.293 2.967 0 1.293 0.44 2.253 1.333 2.867 0.52 0.38 1.48 0.72 2.853 1.016l1.4 0.32c0.84 0.177 1.427 0.4 1.813 0.613 0.373 0.244 0.573 0.583 0.573 1.020 0 0.755-0.387 1.273-1.16 1.531l-0.040 0.021h-2.947c-0.383-0.139-0.68-0.339-0.92-0.6-0.24-0.299-0.4-0.733-0.48-1.351h-2.64c0 0.755 0.137 1.393 0.44 1.973h-2.24c0.253-0.52 0.4-1.097 0.4-1.756 0-1.173-0.4-2.067-1.181-2.688-0.499-0.396-1.253-0.713-2.251-0.956l-2.293-0.536c-0.88-0.187-1.453-0.373-1.733-0.533-0.413-0.24-0.613-0.6-0.613-1.053 0-0.507 0.213-0.907 0.627-1.187 0.44-0.28 1-0.413 1.72-0.413 0.653 0 1.173 0.12 1.613 0.347 0.659 0.341 1 0.92 1.053 1.716h2.667c-0.040-1.395-0.553-2.471-1.533-3.205-0.992-0.733-2.167-1.113-3.56-1.113-1.673 0-2.927 0.4-3.804 1.173-0.853 0.777-1.293 1.773-1.293 2.947 0 1.293 0.44 2.251 1.333 2.867 0.536 0.36 1.493 0.697 2.867 1.013l1.393 0.32c0.813 0.18 1.413 0.38 1.813 0.62 0.373 0.24 0.573 0.573 0.573 1.013 0 0.76-0.4 1.253-1.173 1.533h-2.987c-0.379-0.141-0.693-0.341-0.92-0.62-0.24-0.293-0.413-0.752-0.493-1.352h-2.689c0 0.744 0.14 1.4 0.427 1.973h-2.787c0.44-0.693 0.737-1.493 0.884-2.387h-2.737c-0.187 0.68-0.416 1.197-0.7 1.533-0.347 0.44-0.8 0.72-1.36 0.86h-1.636c-0.6-0.14-1.116-0.477-1.533-1.013-0.619-0.744-0.917-1.859-0.917-3.333 0-1.493 0.307-2.627 0.88-3.44 0.6-0.817 1.373-1.213 2.387-1.213 1 0 1.733 0.28 2.253 0.859 0.28 0.32 0.52 0.8 0.693 1.435h2.773c-0.040-0.824-0.347-1.653-0.915-2.48-1.029-1.467-2.659-2.2-4.885-2.2-1.547 0-2.845 0.48-3.88 1.413zM31.899 26.752v-2.072h-0.688c-0.047-0.796-0.4-1.363-1.044-1.699-0.417-0.219-0.956-0.331-1.591-0.331-0.72 0-1.273 0.147-1.693 0.429-0.416 0.287-0.637 0.691-0.637 1.203 0 0.473 0.221 0.827 0.636 1.060 0.293 0.14 0.867 0.339 1.747 0.539l2.293 0.547c0.4 0.080 0.747 0.2 1.067 0.307z"></path>
</symbol>
<symbol id="icon-css3" viewBox="0 0 32 32">
<path fill="#1572b6" style="fill: var(--color6, #1572b6)" d="M2 0h28l-2.547 28.751-11.484 3.249-11.42-3.251zM24.787 5.884l-17.573-0.004 0.284 3.496 13.5 0.003-0.34 3.621h-8.853l0.32 3.431h8.243l-0.488 4.697-3.88 1.072-3.941-1.080-0.251-2.813h-3.48l0.387 5.14 7.287 2.271 7.164-2.040z"></path>
</symbol>
<symbol id="icon-wordpress" viewBox="0 0 32 32">
<path fill="#21759b" style="fill: var(--color7, #21759b)" d="M28.625 9.1c1.12 2.049 1.757 4.4 1.757 6.9 0 5.305-2.875 9.941-7.151 12.433l4.393-12.703c0.82-2.053 1.093-3.695 1.093-5.152 0-0.54-0.035-1.040-0.093-1.48zM17.984 9.239c0.863-0.040 1.643-0.14 1.643-0.14 0.776-0.1 0.685-1.24-0.089-1.199 0 0-2.34 0.18-3.84 0.18-1.419 0-3.8-0.2-3.8-0.2-0.78-0.040-0.881 1.14-0.1 1.18 0 0 0.72 0.081 1.5 0.12l2.24 6.14-3.16 9.44-5.239-15.56c0.865-0.040 1.645-0.133 1.645-0.133 0.78-0.1 0.688-1.24-0.087-1.195 0 0-2.328 0.184-3.832 0.184-0.267 0-0.584-0.011-0.92-0.020 2.603-3.836 7.035-6.416 12.055-6.416 3.745 0 7.153 1.429 9.715 3.777-0.061-0.004-0.121-0.012-0.188-0.012-1.413 0-2.416 1.231-2.416 2.552 0 1.187 0.684 2.191 1.413 3.375 0.548 0.96 1.187 2.191 1.187 3.969 0 1.22-0.472 2.659-1.095 4.639l-1.433 4.78-5.2-15.48zM16 30.379c-1.412 0-2.775-0.204-4.064-0.583l4.316-12.541 4.42 12.116c0.032 0.071 0.067 0.135 0.104 0.199-1.493 0.524-3.1 0.812-4.776 0.812zM1.615 16c0-2.085 0.448-4.067 1.247-5.853l6.859 18.799c-4.795-2.332-8.104-7.251-8.105-12.945zM16 0c-8.82 0-16 7.18-16 16s7.18 16 16 16 16-7.18 16-16-7.18-16-16-16z"></path>
</symbol>
<symbol id="icon-react" viewBox="0 0 32 32">
<path fill="#61dafb" style="fill: var(--color8, #61dafb)" d="M16 13.148c-1.575 0-2.852 1.277-2.852 2.852s1.277 2.852 2.852 2.852v0c1.575 0 2.852-1.277 2.852-2.852s-1.277-2.852-2.852-2.852v0zM8.011 21.673l-0.629-0.16c-4.691-1.185-7.381-3.197-7.381-5.519s2.691-4.333 7.381-5.519l0.629-0.159 0.177 0.624c0.545 1.86 1.163 3.443 1.899 4.957l-0.082-0.186 0.135 0.284-0.135 0.284c-0.656 1.329-1.275 2.912-1.761 4.551l-0.056 0.22zM7.089 11.933c-3.565 1.001-5.753 2.533-5.753 4.061 0 1.527 2.188 3.059 5.753 4.061 0.512-1.62 1.046-2.965 1.662-4.263l-0.086 0.202c-0.531-1.098-1.066-2.443-1.511-3.828l-0.065-0.234zM23.989 21.673l-0.177-0.625c-0.544-1.859-1.162-3.441-1.9-4.954l0.081 0.184-0.135-0.284 0.135-0.284c0.656-1.329 1.275-2.911 1.762-4.55l0.056-0.221 0.177-0.624 0.631 0.159c4.689 1.185 7.38 3.197 7.38 5.52s-2.691 4.333-7.38 5.519zM23.335 15.995c0.64 1.385 1.169 2.747 1.576 4.061 3.567-1.003 5.753-2.535 5.753-4.061 0-1.528-2.188-3.059-5.753-4.061-0.511 1.619-1.045 2.963-1.662 4.262l0.086-0.2zM7.080 11.927l-0.177-0.623c-1.319-4.648-0.919-7.979 1.097-9.141 1.977-1.141 5.152 0.207 8.479 3.621l0.453 0.465-0.453 0.465c-1.146 1.19-2.207 2.482-3.162 3.853l-0.068 0.103-0.18 0.257-0.313 0.027c-1.875 0.151-3.596 0.439-5.264 0.86l0.218-0.047zM9.608 3.087c-0.357 0-0.673 0.077-0.94 0.231-1.325 0.764-1.56 3.42-0.647 7.004 1.21-0.285 2.681-0.521 4.18-0.658l0.131-0.010c0.894-1.264 1.792-2.37 2.756-3.414l-0.020 0.022c-2.080-2.025-4.049-3.175-5.46-3.175zM22.393 30.236c-0.001 0-0.001 0 0 0-1.9 0-4.34-1.431-6.872-4.031l-0.453-0.465 0.453-0.465c1.146-1.19 2.206-2.482 3.16-3.854l0.068-0.103 0.18-0.257 0.312-0.027c1.875-0.15 3.597-0.438 5.267-0.858l-0.218 0.046 0.629-0.159 0.179 0.624c1.316 4.645 0.917 7.977-1.099 9.139-0.449 0.259-0.988 0.411-1.562 0.411-0.016 0-0.031-0-0.047-0l0.002 0zM16.932 25.728c2.080 2.025 4.049 3.175 5.46 3.175h0.001c0.356 0 0.673-0.077 0.939-0.231 1.325-0.764 1.561-3.421 0.647-7.005-1.212 0.286-2.682 0.522-4.182 0.658l-0.13 0.010c-0.893 1.265-1.791 2.371-2.755 3.416l0.020-0.022zM24.92 11.927l-0.629-0.159c-1.453-0.376-3.175-0.664-4.939-0.806l-0.111-0.007-0.312-0.027-0.18-0.257c-1.021-1.474-2.082-2.766-3.237-3.966l0.009 0.010-0.453-0.465 0.453-0.465c3.325-3.413 6.499-4.761 8.479-3.621 2.016 1.163 2.416 4.493 1.099 9.14zM19.667 9.653c1.523 0.139 2.969 0.364 4.312 0.668 0.915-3.584 0.679-6.24-0.647-7.004-1.317-0.761-3.793 0.405-6.4 2.944 0.943 1.022 1.841 2.128 2.666 3.289l0.069 0.103zM9.608 30.236c-0.014 0-0.030 0-0.046 0-0.574 0-1.113-0.152-1.577-0.419l0.015 0.008c-2.016-1.161-2.416-4.492-1.097-9.139l0.176-0.624 0.629 0.159c1.54 0.388 3.239 0.661 5.047 0.812l0.313 0.027 0.179 0.257c1.022 1.475 2.083 2.767 3.239 3.967l-0.010-0.010 0.453 0.465-0.453 0.465c-2.531 2.6-4.971 4.031-6.868 4.031zM8.021 21.667c-0.915 3.584-0.679 6.241 0.647 7.005 1.316 0.751 3.791-0.407 6.4-2.944-0.943-1.022-1.841-2.129-2.667-3.29l-0.069-0.103c-1.629-0.146-3.099-0.382-4.534-0.711l0.224 0.043zM16 22.504c-1.097 0-2.225-0.048-3.355-0.141l-0.313-0.027-0.18-0.257c-0.544-0.768-1.139-1.691-1.697-2.639l-0.103-0.19c-0.452-0.758-0.971-1.732-1.45-2.728l-0.105-0.243-0.133-0.284 0.133-0.284c0.584-1.239 1.102-2.212 1.658-3.161l-0.103 0.191c0.552-0.955 1.159-1.907 1.8-2.829l0.18-0.257 0.313-0.027c1.005-0.090 2.174-0.142 3.355-0.142s2.35 0.052 3.505 0.153l-0.15-0.011 0.312 0.027 0.179 0.257c1.177 1.666 2.294 3.567 3.252 5.56l0.104 0.24 0.135 0.284-0.135 0.284c-1.058 2.232-2.176 4.133-3.439 5.925l0.083-0.125-0.179 0.257-0.312 0.027c-1.129 0.093-2.259 0.141-3.356 0.141zM13.071 21.059c1.973 0.148 3.885 0.148 5.86 0 1.004-1.445 1.978-3.104 2.827-4.836l0.101-0.228c-0.947-1.958-1.922-3.617-3.012-5.19l0.083 0.126c-0.877-0.071-1.898-0.111-2.929-0.111s-2.052 0.040-3.063 0.119l0.134-0.008c-1.008 1.447-1.983 3.106-2.83 4.84l-0.099 0.224c0.951 1.96 1.926 3.619 3.014 5.193l-0.085-0.13z"></path>
</symbol>
<symbol id="icon-sass" viewBox="0 0 32 32">
<path fill="#c69" style="fill: var(--color9, #c69)" d="M16 0c8.836 0 16 7.164 16 16s-7.164 16-16 16-16-7.164-16-16 7.164-16 16-16zM12.82 21.331c0.233 0.86 0.208 1.664-0.032 2.389l-0.087 0.24c-0.032 0.081-0.069 0.16-0.104 0.235-0.187 0.387-0.435 0.747-0.74 1.080-0.931 1.012-2.229 1.396-2.787 1.073-0.6-0.349-0.301-1.78 0.779-2.92 1.161-1.224 2.827-2.012 2.827-2.012v-0.004zM26.035 6.849c-0.723-2.844-5.436-3.779-9.896-2.193-2.652 0.943-5.525 2.424-7.591 4.356-2.457 2.295-2.848 4.295-2.687 5.131 0.569 2.948 4.609 4.876 6.271 6.307v0.008c-0.489 0.24-4.075 2.039-4.915 3.9-0.9 1.96 0.14 3.361 0.82 3.54 2.1 0.581 4.26-0.48 5.42-2.199 1.12-1.681 1.021-3.841 0.539-4.901 0.661-0.18 1.44-0.26 2.44-0.139 2.801 0.32 3.361 2.080 3.24 2.8-0.12 0.719-0.697 1.139-0.899 1.259-0.2 0.121-0.26 0.16-0.241 0.241 0.020 0.12 0.121 0.12 0.28 0.1 0.22-0.040 1.461-0.6 1.521-1.961 0.060-1.72-1.581-3.639-4.5-3.6-1.2 0.021-1.961 0.121-2.5 0.341-0.040-0.060-0.081-0.1-0.14-0.14-1.8-1.94-5.14-3.3-5-5.88 0.040-0.94 0.38-3.419 6.4-6.419 4.94-2.461 8.881-1.78 9.561-0.28 0.977 2.139-2.101 6.12-7.241 6.699-1.96 0.22-2.98-0.539-3.241-0.82-0.279-0.3-0.319-0.32-0.419-0.259-0.16 0.080-0.060 0.34 0 0.5 0.16 0.4 0.78 1.1 1.861 1.46 0.939 0.3 3.24 0.479 6-0.6 3.099-1.199 5.519-4.54 4.819-7.34z"></path>
</symbol>
<symbol id="icon-chevron-down" viewBox="0 0 20 20">
<path d="M4.516 7.548c0.436-0.446 1.043-0.481 1.576 0l3.908 3.747 3.908-3.747c0.533-0.481 1.141-0.446 1.574 0 0.436 0.445 0.408 1.197 0 1.615-0.406 0.418-4.695 4.502-4.695 4.502-0.217 0.223-0.502 0.335-0.787 0.335s-0.57-0.112-0.789-0.335c0 0-4.287-4.084-4.695-4.502s-0.436-1.17 0-1.615z"></path>
</symbol>
<symbol id="icon-upload-to-cloud" viewBox="0 0 20 20">
<path d="M15.213 6.639c-0.276 0-0.546 0.025-0.809 0.068-0.656-2.145-2.688-3.707-5.095-3.707-2.939 0-5.32 2.328-5.32 5.199 0 0.256 0.020 0.508 0.057 0.756-0.141-0.017-0.283-0.027-0.429-0.027-1.998 0-3.617 1.582-3.617 3.535s1.619 3.537 3.617 3.537h4.383v-4h-2.5l4.5-5 4.5 5h-2.5v4h3.213c2.643 0 4.787-2.096 4.787-4.68 0-2.586-2.144-4.681-4.787-4.681z"></path>
</symbol>
<symbol id="icon-database" viewBox="0 0 20 20">
<path d="M16.726 12.641c-0.843 1.363-3.535 2.361-6.726 2.361s-5.883-0.998-6.727-2.361c-0.178-0.29-0.273-0.135-0.273 0.007 0 0.144 0 2.002 0 2.002 0 1.94 3.134 3.95 7 3.95s7-2.010 7-3.949c0 0 0-1.858 0-2.002s-0.096-0.298-0.274-0.008zM16.737 7.525c-0.83 1.205-3.532 2.090-6.737 2.090s-5.908-0.885-6.738-2.090c-0.171-0.248-0.262-0.113-0.262-0.002 0 0.113 0 2.357 0 2.357 0 1.762 3.134 3.189 7 3.189s7-1.428 7-3.189c0 0 0-2.244 0-2.357 0-0.111-0.092-0.246-0.263 0.002zM10 1c-3.866 0-7 1.18-7 2.633v1.26c0 1.541 3.134 2.791 7 2.791s7-1.25 7-2.791v-1.26c0-1.453-3.134-2.633-7-2.633z"></path>
</symbol>
<symbol id="icon-location-pin" viewBox="0 0 20 20">
<path d="M10 2.009c-2.762 0-5 2.229-5 4.99 0 4.774 5 11 5 11s5-6.227 5-11c0-2.76-2.238-4.99-5-4.99zM10 9.76c-1.492 0-2.7-1.209-2.7-2.7s1.208-2.7 2.7-2.7c1.49 0 2.699 1.209 2.699 2.7s-1.209 2.7-2.699 2.7z"></path>
</symbol>
<symbol id="icon-magnifying-glass" viewBox="0 0 20 20">
<path d="M17.545 15.467l-3.779-3.779c0.57-0.935 0.898-2.035 0.898-3.21 0-3.417-2.961-6.377-6.378-6.377s-6.186 2.769-6.186 6.186c0 3.416 2.961 6.377 6.377 6.377 1.137 0 2.2-0.309 3.115-0.844l3.799 3.801c0.372 0.371 0.975 0.371 1.346 0l0.943-0.943c0.371-0.371 0.236-0.84-0.135-1.211zM4.004 8.287c0-2.366 1.917-4.283 4.282-4.283s4.474 2.107 4.474 4.474c0 2.365-1.918 4.283-4.283 4.283s-4.473-2.109-4.473-4.474z"></path>
</symbol>
<symbol id="icon-star" viewBox="0 0 20 20">
<path d="M10 1.3l2.388 6.722h6.412l-5.232 3.948 1.871 6.928-5.439-4.154-5.438 4.154 1.87-6.928-5.233-3.948h6.412l2.389-6.722z"></path>
</symbol>
<symbol id="icon-cart" viewBox="0 0 32 32">
<path d="M12 29c0 1.657-1.343 3-3 3s-3-1.343-3-3c0-1.657 1.343-3 3-3s3 1.343 3 3z"></path>
<path d="M32 29c0 1.657-1.343 3-3 3s-3-1.343-3-3c0-1.657 1.343-3 3-3s3 1.343 3 3z"></path>
<path d="M32 16v-12h-24c0-1.105-0.895-2-2-2h-6v2h4l1.502 12.877c-0.915 0.733-1.502 1.859-1.502 3.123 0 2.209 1.791 4 4 4h24v-2h-24c-1.105 0-2-0.895-2-2 0-0.007 0-0.014 0-0.020l26-3.98z"></path>
</symbol>
<symbol id="icon-display" viewBox="0 0 32 32">
<path d="M0 2v20h32v-20h-32zM30 20h-28v-16h28v16zM21 24h-10l-1 4-2 2h16l-2-2z"></path>
</symbol>
<symbol id="icon-database1" viewBox="0 0 32 32">
<path d="M16 0c-8.837 0-16 2.239-16 5v4c0 2.761 7.163 5 16 5s16-2.239 16-5v-4c0-2.761-7.163-5-16-5z"></path>
<path d="M16 17c-8.837 0-16-2.239-16-5v6c0 2.761 7.163 5 16 5s16-2.239 16-5v-6c0 2.761-7.163 5-16 5z"></path>
<path d="M16 26c-8.837 0-16-2.239-16-5v6c0 2.761 7.163 5 16 5s16-2.239 16-5v-6c0 2.761-7.163 5-16 5z"></path>
</symbol>
<symbol id="icon-tree" viewBox="0 0 32 32">
<path d="M30.5 24h-0.5v-6.5c0-1.93-1.57-3.5-3.5-3.5h-8.5v-4h0.5c0.825 0 1.5-0.675 1.5-1.5v-5c0-0.825-0.675-1.5-1.5-1.5h-5c-0.825 0-1.5 0.675-1.5 1.5v5c0 0.825 0.675 1.5 1.5 1.5h0.5v4h-8.5c-1.93 0-3.5 1.57-3.5 3.5v6.5h-0.5c-0.825 0-1.5 0.675-1.5 1.5v5c0 0.825 0.675 1.5 1.5 1.5h5c0.825 0 1.5-0.675 1.5-1.5v-5c0-0.825-0.675-1.5-1.5-1.5h-0.5v-6h8v6h-0.5c-0.825 0-1.5 0.675-1.5 1.5v5c0 0.825 0.675 1.5 1.5 1.5h5c0.825 0 1.5-0.675 1.5-1.5v-5c0-0.825-0.675-1.5-1.5-1.5h-0.5v-6h8v6h-0.5c-0.825 0-1.5 0.675-1.5 1.5v5c0 0.825 0.675 1.5 1.5 1.5h5c0.825 0 1.5-0.675 1.5-1.5v-5c0-0.825-0.675-1.5-1.5-1.5zM6 30h-4v-4h4v4zM18 30h-4v-4h4v4zM14 8v-4h4v4h-4zM30 30h-4v-4h4v4z"></path>
</symbol>
<symbol id="icon-cloud-upload" viewBox="0 0 32 32">
<path d="M27.883 12.078c0.076-0.347 0.117-0.708 0.117-1.078 0-2.761-2.239-5-5-5-0.444 0-0.875 0.058-1.285 0.167-0.775-2.417-3.040-4.167-5.715-4.167-2.73 0-5.033 1.823-5.76 4.318-0.711-0.207-1.462-0.318-2.24-0.318-4.418 0-8 3.582-8 8s3.582 8 8 8h4v6h8v-6h7c2.761 0 5-2.239 5-5 0-2.46-1.777-4.505-4.117-4.922zM18 20v6h-4v-6h-5l7-7 7 7h-5z"></path>
</symbol>
<symbol id="icon-exit" viewBox="0 0 32 32">
<path d="M24 20v-4h-10v-4h10v-4l6 6zM22 18v8h-10v6l-12-6v-26h22v10h-2v-8h-16l8 4v18h8v-6z"></path>
</symbol>
<symbol id="icon-embed2" viewBox="0 0 40 32">
<path d="M26 23l3 3 10-10-10-10-3 3 7 7z"></path>
<path d="M14 9l-3-3-10 10 10 10 3-3-7-7z"></path>
<path d="M21.916 4.704l2.171 0.592-6 22.001-2.171-0.592 6-22.001z"></path>
</symbol>
<symbol id="icon-twitter" viewBox="0 0 32 32">
<path d="M32 7.075c-1.175 0.525-2.444 0.875-3.769 1.031 1.356-0.813 2.394-2.1 2.887-3.631-1.269 0.75-2.675 1.3-4.169 1.594-1.2-1.275-2.906-2.069-4.794-2.069-3.625 0-6.563 2.938-6.563 6.563 0 0.512 0.056 1.012 0.169 1.494-5.456-0.275-10.294-2.888-13.531-6.862-0.563 0.969-0.887 2.1-0.887 3.3 0 2.275 1.156 4.287 2.919 5.463-1.075-0.031-2.087-0.331-2.975-0.819 0 0.025 0 0.056 0 0.081 0 3.181 2.263 5.838 5.269 6.437-0.55 0.15-1.131 0.231-1.731 0.231-0.425 0-0.831-0.044-1.237-0.119 0.838 2.606 3.263 4.506 6.131 4.563-2.25 1.762-5.075 2.813-8.156 2.813-0.531 0-1.050-0.031-1.569-0.094 2.913 1.869 6.362 2.95 10.069 2.95 12.075 0 18.681-10.006 18.681-18.681 0-0.287-0.006-0.569-0.019-0.85 1.281-0.919 2.394-2.075 3.275-3.394z"></path>
</symbol>
<symbol id="icon-github" viewBox="0 0 32 32">
<path d="M16 0.395c-8.836 0-16 7.163-16 16 0 7.069 4.585 13.067 10.942 15.182 0.8 0.148 1.094-0.347 1.094-0.77 0-0.381-0.015-1.642-0.022-2.979-4.452 0.968-5.391-1.888-5.391-1.888-0.728-1.849-1.776-2.341-1.776-2.341-1.452-0.993 0.11-0.973 0.11-0.973 1.606 0.113 2.452 1.649 2.452 1.649 1.427 2.446 3.743 1.739 4.656 1.33 0.143-1.034 0.558-1.74 1.016-2.14-3.554-0.404-7.29-1.777-7.29-7.907 0-1.747 0.625-3.174 1.649-4.295-0.166-0.403-0.714-2.030 0.155-4.234 0 0 1.344-0.43 4.401 1.64 1.276-0.355 2.645-0.532 4.005-0.539 1.359 0.006 2.729 0.184 4.008 0.539 3.054-2.070 4.395-1.64 4.395-1.64 0.871 2.204 0.323 3.831 0.157 4.234 1.026 1.12 1.647 2.548 1.647 4.295 0 6.145-3.743 7.498-7.306 7.895 0.574 0.497 1.085 1.47 1.085 2.963 0 2.141-0.019 3.864-0.019 4.391 0 0.426 0.288 0.925 1.099 0.768 6.354-2.118 10.933-8.113 10.933-15.18 0-8.837-7.164-16-16-16z"></path>
</symbol>
<symbol id="icon-linkedin" viewBox="0 0 32 32">
<path d="M29 0h-26c-1.65 0-3 1.35-3 3v26c0 1.65 1.35 3 3 3h26c1.65 0 3-1.35 3-3v-26c0-1.65-1.35-3-3-3zM12 26h-4v-14h4v14zM10 10c-1.106 0-2-0.894-2-2s0.894-2 2-2c1.106 0 2 0.894 2 2s-0.894 2-2 2zM26 26h-4v-8c0-1.106-0.894-2-2-2s-2 0.894-2 2v8h-4v-14h4v2.481c0.825-1.131 2.087-2.481 3.5-2.481 2.488 0 4.5 2.238 4.5 5v9z"></path>
</symbol>
<symbol id="icon-css31" viewBox="0 0 32 32">
<path d="M4.762 1.516l-1.074 5.373h21.867l-0.684 3.47h-21.881l-1.059 5.372h21.865l-1.219 6.127-8.813 2.919-7.638-2.919 0.523-2.658h-5.372l-1.278 6.448 12.632 4.834 14.563-4.834 4.805-24.133z"></path>
</symbol>
</defs>
</svg>
